<svg id="Layer_1" data-name="Layer 1" xmlns="http://www.w3.org/2000/svg" viewBox="0 0 221.11 164.87"><defs><style>.cls-1{fill:#efae0f;}.cls-2{fill:#d17412;}</style></defs><title>ryzhei2</title><path class="cls-1" d="M17.59,123.51a75.08,75.08,0,0,0,34,12.18c9.05.88,18.28.11,27.17,2,6.89,1.47,13.35,4.51,19.48,8,5.56,3.16,11.34,7.3,12.85,13.52.67-7.35-1.94-14.66-5.71-21-16.38-27.56-50.56-34.08-80-28-4.13.85-8.3,1.91-12.5,1.55-2.75-.24-6.08-.88-7.81,1.27A73.49,73.49,0,0,0,17.59,123.51Z"/><path class="cls-1" d="M110.76,15.35c3,3.33,5.51,3.78,9.4,5.86a18.1,18.1,0,0,1,5.7,4.09,14.28,14.28,0,0,1,2.66,6.33,33.52,33.52,0,0,1-3.09,22c-2.5,4.79-6.13,8.89-8.83,13.57s-3.43,6.92-3.51,12.17a33.51,33.51,0,0,0-7-13.63c-4-4.88-8.65-9.38-11.54-15-4.66-9.07-3.59-21.5,4.31-28,2.52-2.07,4.88-3.41,7.11-5.79s2.42-4,2.3-7C108.31,9.93,109.6,14.05,110.76,15.35Z"/><path class="cls-1" d="M68.08,19.25c1.33.71,2.18.56,3.66.77a6,6,0,0,1,2.28.64,4.78,4.78,0,0,1,1.58,1.7,11.35,11.35,0,0,1,1.56,7.33c-.24,1.81-.91,3.53-1.22,5.33a6.91,6.91,0,0,0,.29,4.27,11.11,11.11,0,0,0-3.79-3.52A29.88,29.88,0,0,1,67,32.35C64.51,30,63.42,25.94,65.17,23a21.78,21.78,0,0,0,1.58-2.67,2.67,2.67,0,0,0-.08-2.49A7.13,7.13,0,0,0,68.08,19.25Z"/><path class="cls-1" d="M157.09,20.43c.16,1.5.76,2.13,1.42,3.46a6.38,6.38,0,0,1,.76,2.25,4.83,4.83,0,0,1-.52,2.26,11.33,11.33,0,0,1-5.19,5.42c-1.63.82-3.43,1.23-5.09,2a6.87,6.87,0,0,0-3.36,2.65,11.32,11.32,0,0,0,.77-5.11,29.76,29.76,0,0,1-.2-6.39c.51-3.41,3.25-6.61,6.69-6.82a21.42,21.42,0,0,0,3.1-.19,2.68,2.68,0,0,0,2-1.47A7,7,0,0,0,157.09,20.43Z"/><path class="cls-1" d="M88.78,12c.81,1.28,1.63,1.56,2.81,2.47a6.25,6.25,0,0,1,1.68,1.68,4.82,4.82,0,0,1,.54,2.25,11.3,11.3,0,0,1-2.24,7.16c-1.09,1.46-2.52,2.63-3.68,4a7,7,0,0,0-1.84,3.86,11.29,11.29,0,0,0-1.57-4.92,29.67,29.67,0,0,1-3-5.63c-1.06-3.28,0-7.36,3-9.09a20.36,20.36,0,0,0,2.69-1.54,2.69,2.69,0,0,0,1.15-2.22A7.1,7.1,0,0,0,88.78,12Z"/><path class="cls-1" d="M137.4,12c.81,1.28,1.63,1.56,2.81,2.47a6.07,6.07,0,0,1,1.67,1.68,4.71,4.71,0,0,1,.55,2.25,11.36,11.36,0,0,1-2.24,7.16c-1.1,1.46-2.53,2.63-3.68,4a6.87,6.87,0,0,0-1.84,3.86,11.29,11.29,0,0,0-1.57-4.92,29.71,29.71,0,0,1-3-5.63c-1.06-3.28,0-7.36,3-9.09a20.9,20.9,0,0,0,2.68-1.54,2.67,2.67,0,0,0,1.16-2.22A7.1,7.1,0,0,0,137.4,12Z"/><path class="cls-1" d="M82.33,42a7.19,7.19,0,0,0,3,.19,4.92,4.92,0,0,1,1.87.25,3.88,3.88,0,0,1,1.43,1.15,9,9,0,0,1,2,5.59c0,1.44-.32,2.87-.36,4.32A5.58,5.58,0,0,0,91,56.81a8.84,8.84,0,0,0-3.37-2.34A23.47,23.47,0,0,1,83,52.39c-2.25-1.55-3.57-4.62-2.53-7.15A16.69,16.69,0,0,0,81.41,43,2.12,2.12,0,0,0,81.07,41,5.72,5.72,0,0,0,82.33,42Z"/><path class="cls-1" d="M141.18,41a7.18,7.18,0,0,0,1.34,2.64,4.83,4.83,0,0,1,.74,1.73,3.8,3.8,0,0,1-.27,1.82,9,9,0,0,1-3.76,4.61c-1.23.75-2.63,1.19-3.9,1.89a5.46,5.46,0,0,0-2.49,2.3,9,9,0,0,0,.29-4.09,24,24,0,0,1-.56-5c.19-2.73,2.16-5.43,4.86-5.81a19.63,19.63,0,0,0,2.44-.34,2.14,2.14,0,0,0,1.5-1.3A6.06,6.06,0,0,0,141.18,41Z"/><path class="cls-1" d="M87.44,60.69c2.43,1.09,3.91.72,6.53.91a10.76,10.76,0,0,1,4.09.84,8.46,8.46,0,0,1,3,2.79,20,20,0,0,1,3.65,12.7c-.2,3.21-1.18,6.32-1.51,9.51a12.26,12.26,0,0,0,1,7.46,19.88,19.88,0,0,0-7.08-5.71c-3.37-1.68-7-3-9.91-5.36C82.5,80,80.07,73,82.79,67.6a38.44,38.44,0,0,0,2.46-4.88c.63-1.83.35-2.74-.45-4.37A12.62,12.62,0,0,0,87.44,60.69Z"/><path class="cls-1" d="M60.07,39.41c2.43,1.08,3.91.71,6.53.9a11,11,0,0,1,4.09.84,8.46,8.46,0,0,1,3,2.79,20,20,0,0,1,3.65,12.71c-.2,3.2-1.18,6.31-1.51,9.5a12.25,12.25,0,0,0,1,7.46,19.88,19.88,0,0,0-7.08-5.71c-3.37-1.67-7-3-9.91-5.36-4.73-3.79-7.16-10.81-4.44-16.23a39,39,0,0,0,2.46-4.87,4.75,4.75,0,0,0-.45-4.38A12.88,12.88,0,0,0,60.07,39.41Z"/><path class="cls-1" d="M139.76,60.09c.78,2.54,2,3.42,3.61,5.51a11,11,0,0,1,2.06,3.63,8.59,8.59,0,0,1-.15,4.09,19.9,19.9,0,0,1-7.17,11.1c-2.55,2-5.53,3.27-8.15,5.12A12.13,12.13,0,0,0,125,95.22a19.9,19.9,0,0,0-.35-9.09c-1-3.64-2.33-7.23-2.48-11-.25-6.06,3.44-12.5,9.32-14a36.49,36.49,0,0,0,5.28-1.35c1.8-.73,2.3-1.53,3-3.22A13,13,0,0,0,139.76,60.09Z"/><path class="cls-1" d="M164.62,35c.78,2.54,2,3.42,3.61,5.51a10.78,10.78,0,0,1,2.05,3.64,8.43,8.43,0,0,1-.14,4.08A19.92,19.92,0,0,1,163,59.29c-2.54,2-5.52,3.27-8.15,5.12a12.27,12.27,0,0,0-4.94,5.69,19.81,19.81,0,0,0-.35-9.1c-1-3.64-2.32-7.23-2.47-11-.25-6.06,3.44-12.5,9.31-14a38,38,0,0,0,5.29-1.36c1.8-.73,2.3-1.53,3-3.22A13,13,0,0,0,164.62,35Z"/><path class="cls-1" d="M112.09,74.51c-.73,28.47-1.26,57-2,85.42a.69.69,0,0,0,1.38,0c.73-28.47,1.26-56.95,2-85.42a.69.69,0,0,0-1.38,0Z"/><path class="cls-1" d="M101.21,90.8c3.24,5.12,6.42,10.6,7.62,16.6,1.42,7.1,1.6,14.72,2,21.94,0,.88,1.42.88,1.38,0-.37-7.36-.58-15.06-2-22.31-1.21-6.1-4.47-11.73-7.76-16.93-.48-.74-1.67,0-1.19.7Z"/><path class="cls-1" d="M126.89,88.82c-2.74,7.4-7.55,13.79-10.89,20.91-2.66,5.68-5.38,10.31-5.33,16.76a.69.69,0,0,0,1.38,0c-.06-7,3.51-13.12,6.67-19.23s7.11-11.63,9.5-18.07c.31-.83-1-1.19-1.33-.37Z"/><path class="cls-2" d="M106.68,143c-13.51-5.44-17.21-7-21.36-9.89-.57-.39-1.16-.84-1.8-1.32-5-3.71-12.43-9.33-32.76-11.68-1.49-.17-4.2-.18-7.34-.19-11.51,0-28.91-.1-31.93-7.14l1.27-.54c2.66,6.21,20.19,6.27,30.67,6.3,3.31,0,5.92,0,7.49.2,20.7,2.4,28.67,8.38,33.43,11.95.62.47,1.2.91,1.76,1.29,4,2.82,7.69,4.35,21.08,9.74Z"/><path class="cls-1" d="M204.61,123.51a75.08,75.08,0,0,1-34,12.18c-9.05.88-18.28.11-27.17,2-6.89,1.47-13.35,4.51-19.48,8-5.56,3.16-11.34,7.3-12.85,13.52-.67-7.35,1.94-14.66,5.71-21,16.38-27.56,50.56-34.08,80.05-28,4.12.85,8.29,1.91,12.49,1.55,2.75-.24,6.08-.88,7.81,1.27A72.73,72.73,0,0,1,204.61,123.51Z"/><path class="cls-2" d="M115.83,143l-.51-1.28c13.38-5.39,17.05-6.92,21.08-9.74.55-.38,1.13-.82,1.76-1.29,4.76-3.57,12.72-9.55,33.43-11.95,1.56-.18,4.18-.19,7.49-.2,10.47,0,28-.09,30.67-6.3l1.27.54c-3,7-20.42,7.1-31.94,7.14-3.14,0-5.85,0-7.33.19-20.34,2.35-27.82,8-32.76,11.68-.64.48-1.24.93-1.8,1.32C133,136,129.33,137.57,115.83,143Z"/></svg>