<svg id="Layer_1" data-name="Layer 1" xmlns="http://www.w3.org/2000/svg" viewBox="0 0 117.6 116.26"><defs><style>.cls-1{fill:#19381f;}</style></defs><title>sunf</title><circle class="cls-1" cx="58.9" cy="58.15" r="21.52"/><path class="cls-1" d="M92,55.07h0a6.24,6.24,0,0,1-6.24-6.24c-.09-9.18,5.34-20.54,6.26-20.54h.17c1.18,0,6.43,13.24,6.05,20.54A6.24,6.24,0,0,1,92,55.07Z" transform="translate(-33.14 -27.96)"/><path class="cls-1" d="M103.62,57.39h0a7.43,7.43,0,0,1-4-9.76C103.83,37.5,115.08,27.55,116.09,28l.19.07c1.29.55.91,17.54-2.9,25.39A7.44,7.44,0,0,1,103.62,57.39Z" transform="translate(-33.14 -27.96)"/><path class="cls-1" d="M123.09,86.32h0a6,6,0,0,1,5.8-6.11c8.76-.31,19.73,4.61,19.75,5.49v.16c0,1.12-12.48,6.45-19.46,6.27A6,6,0,0,1,123.09,86.32Z" transform="translate(-33.14 -27.96)"/><path class="cls-1" d="M80.49,57.39h0a7.45,7.45,0,0,0,4-9.76C80.28,37.5,69,27.55,68,28l-.18.07c-1.3.55-.91,17.54,2.89,25.39A7.45,7.45,0,0,0,80.49,57.39Z" transform="translate(-33.14 -27.96)"/><path class="cls-1" d="M63.47,74.53h0a7.64,7.64,0,0,0-4.07-10C49.08,60,33.68,60.77,33.24,61.81l-.08.19C32.6,63.33,45,75.55,53.46,78.61A7.64,7.64,0,0,0,63.47,74.53Z" transform="translate(-33.14 -27.96)"/><path class="cls-1" d="M71.42,64.4h0a6.17,6.17,0,0,0-.84-8.69c-7-5.85-19-8.84-19.63-8.13l-.11.12c-.74.9,6.07,13.24,11.89,17.55A6.17,6.17,0,0,0,71.42,64.4Z" transform="translate(-33.14 -27.96)"/><path class="cls-1" d="M63.47,97.91h0a7.64,7.64,0,0,1-4.07,10c-10.32,4.48-25.72,3.75-26.16,2.71l-.08-.19C32.6,109.11,45,96.89,53.46,93.83A7.64,7.64,0,0,1,63.47,97.91Z" transform="translate(-33.14 -27.96)"/><path class="cls-1" d="M71.42,108h0a6.45,6.45,0,0,1-.88,9.08c-7.26,6.1-19.89,9.23-20.5,8.49l-.11-.13c-.77-.94,6.34-13.83,12.41-18.32A6.45,6.45,0,0,1,71.42,108Z" transform="translate(-33.14 -27.96)"/><path class="cls-1" d="M120.4,74.53h0a7.64,7.64,0,0,1,4.07-10c10.32-4.48,25.73-3.75,26.17-2.71l.08.19c.56,1.33-11.89,13.55-20.3,16.61A7.65,7.65,0,0,1,120.4,74.53Z" transform="translate(-33.14 -27.96)"/><path class="cls-1" d="M112.45,64.4h0a6.28,6.28,0,0,1,.86-8.85c7.09-6,19.41-9,20-8.29l.11.13c.75.91-6.19,13.49-12.11,17.87A6.29,6.29,0,0,1,112.45,64.4Z" transform="translate(-33.14 -27.96)"/><path class="cls-1" d="M120.4,97.59h0a7.64,7.64,0,0,0,4.07,10c10.32,4.48,25.73,3.75,26.17,2.71l.08-.19c.56-1.33-11.89-13.55-20.3-16.61A7.65,7.65,0,0,0,120.4,97.59Z" transform="translate(-33.14 -27.96)"/><path class="cls-1" d="M112.45,107.72h0a6.14,6.14,0,0,0,.84,8.65c6.93,5.82,19,8.8,19.54,8.1l.11-.13c.74-.89-6-13.18-11.83-17.46A6.15,6.15,0,0,0,112.45,107.72Z" transform="translate(-33.14 -27.96)"/><path class="cls-1" d="M92.06,117.12h0a6,6,0,0,1,6,6c.09,8.81-5.12,19.71-6,19.71h-.17c-1.12,0-6.16-12.7-5.8-19.71A6,6,0,0,1,92.06,117.12Z" transform="translate(-33.14 -27.96)"/><path class="cls-1" d="M80.49,114.79h0a7.45,7.45,0,0,1,4,9.76C80.28,134.69,69,144.64,68,144.21l-.18-.08c-1.3-.54-.91-17.53,2.89-25.38A7.45,7.45,0,0,1,80.49,114.79Z" transform="translate(-33.14 -27.96)"/><path class="cls-1" d="M103.62,114.79h0a7.44,7.44,0,0,0-4,9.76c4.16,10.14,15.41,20.09,16.42,19.66l.19-.08c1.29-.54.91-17.53-2.9-25.38A7.45,7.45,0,0,0,103.62,114.79Z" transform="translate(-33.14 -27.96)"/><path class="cls-1" d="M61,86.32h0a6.05,6.05,0,0,0-5.89-6.2c-8.89-.31-20,4.67-20,5.57v.16c0,1.14,12.66,6.54,19.73,6.36A6,6,0,0,0,61,86.32Z" transform="translate(-33.14 -27.96)"/></svg>