<svg id="Layer_1" data-name="Layer 1" xmlns="http://www.w3.org/2000/svg" viewBox="0 0 69.52 195.48"><defs><style>.cls-1{fill:#223c68;}.cls-2{fill:#b1cbe9;}.cls-3{fill:#425a8e;}</style></defs><title>chia2</title><path class="cls-1" d="M49.07,13.88c3.56,62.58-2.64,125.29,1.08,187.83.31,5.07,8.26,5.22,8,.1C54.39,139.27,60.58,76.57,57,14c-.29-5.08-8.24-5.23-8-.1Z" transform="translate(-16.65 -10.1)"/><path class="cls-2" d="M47.38,119h0A11.41,11.41,0,0,1,32,123.62L21.4,117l4.53-3.13-3.75-8,8.76-1.2L31.18,99l11.62,4.64A11.41,11.41,0,0,1,47.38,119Z" transform="translate(-16.65 -10.1)"/><path class="cls-3" d="M54.75,123h0a13.31,13.31,0,0,1-18,5.34l-12.31-7.68L29.73,117l-1.21-7.66,7.05-3.11.28-6.62,13.56,5.4A13.31,13.31,0,0,1,54.75,123Z" transform="translate(-16.65 -10.1)"/><path class="cls-2" d="M61.32,93.46h0a11.39,11.39,0,0,0,16.05,1l8.8-8.81-5.12-2,1.83-8.67-8.8.8-1.52-5.47L62.29,77.41A11.4,11.4,0,0,0,61.32,93.46Z" transform="translate(-16.65 -10.1)"/><path class="cls-3" d="M55,99h0a13.31,13.31,0,0,0,18.72,1.14L84,89.89l-6-2.36-.55-7.74-7.57-1.44L68.16,72l-12,8.33A13.31,13.31,0,0,0,55,99Z" transform="translate(-16.65 -10.1)"/><path class="cls-2" d="M43.45,174.55h0a12.06,12.06,0,0,1-16.85,2.26l-10-8.61,5.25-2.52-2.6-9,9.34.17L29.82,151l11.37,6.73A12.07,12.07,0,0,1,43.45,174.55Z" transform="translate(-16.65 -10.1)"/><path class="cls-3" d="M50.49,179.92h0a14.07,14.07,0,0,1-19.65,2.64l-11.6-10,6.12-2.94,0-8.2,7.87-2.09,1.38-6.87,13.26,7.86A14.06,14.06,0,0,1,50.49,179.92Z" transform="translate(-16.65 -10.1)"/><path class="cls-2" d="M60.21,149.66h0a12,12,0,0,0,17,.39l9-9.64-5.49-1.93,1.59-9.24L73,130.44l-1.81-5.72-10.57,7.95A12.06,12.06,0,0,0,60.21,149.66Z" transform="translate(-16.65 -10.1)"/><path class="cls-3" d="M53.81,155.77h0a14,14,0,0,0,19.81.46L84.05,145l-6.4-2.26-.88-8.15-8.06-1.22-2.12-6.67L54.27,136A14,14,0,0,0,53.81,155.77Z" transform="translate(-16.65 -10.1)"/><path class="cls-2" d="M47.53,67.17h0a9.6,9.6,0,0,1-12.73,4.6l-9.2-5,3.66-2.85-3.55-6.57L33,55.9l-.08-4.78,10,3.32A9.6,9.6,0,0,1,47.53,67.17Z" transform="translate(-16.65 -10.1)"/><path class="cls-3" d="M53.92,70.16h0a11.21,11.21,0,0,1-14.85,5.37L28.35,69.69l4.26-3.33L31.21,60,37,57l-.09-5.57,11.65,3.87A11.2,11.2,0,0,1,53.92,70.16Z" transform="translate(-16.65 -10.1)"/><path class="cls-2" d="M57.8,43.64h0a9.61,9.61,0,0,1,3.37-13.13l9.34-4.79.29,4.64,7.44.77L75.31,38l4,2.63L70.93,47A9.62,9.62,0,0,1,57.8,43.64Z" transform="translate(-16.65 -10.1)"/><path class="cls-3" d="M51.72,47.23h0a11.21,11.21,0,0,1,3.93-15.31l10.89-5.58.35,5.41L73,34.19l-.8,6.44,4.66,3.07L67,51.16A11.21,11.21,0,0,1,51.72,47.23Z" transform="translate(-16.65 -10.1)"/></svg>