<svg id="Layer_1" data-name="Layer 1" xmlns="http://www.w3.org/2000/svg" viewBox="0 0 236.07 130.72"><defs><style>.cls-1{fill:#2761a4;}</style></defs><title>tmin1</title><polygon class="cls-1" points="113.72 127.23 68.33 130.72 36.91 101.63 79.97 110.94 113.72 127.23"/><polygon class="cls-1" points="94.14 126.45 119.71 116.48 148.83 125.44 118.66 128.15 94.14 126.45"/><polygon class="cls-1" points="76.81 127.23 31.42 130.72 0 101.63 43.06 110.94 76.81 127.23"/><polygon class="cls-1" points="127.85 127.23 173.24 130.72 204.66 101.63 161.6 110.94 127.85 127.23"/><polygon class="cls-1" points="159.26 127.23 204.65 130.72 236.07 101.63 193.01 110.94 159.26 127.23"/><path class="cls-1" d="M99.21,132.77h-1.6c0-17.14-10.48-25.36-21.58-34.06-12.58-9.86-26.84-21-26.84-47.22h1.6c0,25.4,13.34,35.85,26.23,46C88.43,106.4,99.21,114.85,99.21,132.77Z" transform="translate(-11.36 -8.39)"/><path class="cls-1" d="M123.38,132.77h-1.6c0-14.45-8.53-21.39-17.57-28.73-10.29-8.37-22-17.85-22-40.06h1.61c0,21.45,10.86,30.28,21.36,38.82C114.56,110.39,123.38,117.56,123.38,132.77Z" transform="translate(-11.36 -8.39)"/><path class="cls-1" d="M133.34,128.38h-1.61c0-28-8.11-38.46-16-48.57-8.88-11.43-17.27-22.22-10.3-57.72l1.58.31c-6.84,34.78,1,44.81,10,56.43C124.68,88.67,133.34,99.81,133.34,128.38Z" transform="translate(-11.36 -8.39)"/><path class="cls-1" d="M161.89,132.77h-1.6c0-17.92,10.77-26.37,22.18-35.32,12.9-10.11,26.23-20.56,26.23-46h1.6c0,26.18-14.26,37.36-26.84,47.22C172.37,107.41,161.89,115.63,161.89,132.77Z" transform="translate(-11.36 -8.39)"/><rect class="cls-1" x="30.83" y="32.72" width="15.07" height="21.52" rx="4.7" ry="4.7"/><rect class="cls-1" x="75.97" y="46.61" width="15.07" height="21.52" rx="4.7" ry="4.7" transform="matrix(1, 0.04, -0.04, 1, -8.98, -11.72)"/><rect class="cls-1" x="100.07" y="8.86" width="15.07" height="21.52" rx="4.7" ry="4.7" transform="translate(-4.54 -31.28) rotate(12.54)"/><path class="cls-1" d="M133.17,135.32l-1.59-.19c.63-5.29,2.53-10.78,4.54-16.58,5.13-14.84,11.52-33.32-.54-59.42l1.45-.68c12.34,26.7,5.83,45.51.6,60.62C135.65,124.79,133.78,130.2,133.17,135.32Z" transform="translate(-11.36 -8.39)"/><rect class="cls-1" x="126.91" y="45.74" width="15.07" height="21.52" rx="4.7" ry="4.7" transform="translate(268.83 43.51) rotate(155.39)"/><path class="cls-1" d="M140.54,132.77h-1.61c0-15.21,8.82-22.38,18.16-30C167.6,94.26,178.46,85.43,178.46,64h1.6c0,22.21-11.66,31.69-22,40.06C149.07,111.38,140.54,118.32,140.54,132.77Z" transform="translate(-11.36 -8.39)"/><rect class="cls-1" x="170.72" y="46.33" width="15.07" height="21.52" rx="4.7" ry="4.7" transform="translate(347.31 98.54) rotate(177.68)"/><rect class="cls-1" x="202.02" y="37.4" width="15.07" height="21.52" rx="4.7" ry="4.7" transform="translate(-9.24 -16.82) rotate(2.32)"/></svg>