<svg id="Layer_1" data-name="Layer 1" xmlns="http://www.w3.org/2000/svg" viewBox="0 0 101.27 197.18"><defs><style>.cls-1{fill:#154477;}</style></defs><title>len</title><path class="cls-1" d="M88,187.8c.14-3.76.3-7.31.41-10.87.37-11.62,1.14-23.2,2.49-34.75a2,2,0,0,0-.71-2,96.26,96.26,0,0,1-28-40.38c-.24-.67-.55-1.33-.74-2-.73-2.54-1.24-5.12-4.93-4.76-1.42.14-2.66-.9-3.63-2.06-3.65-4.4-4.33-13.07.4-17.64a2.28,2.28,0,0,1,2.74-.75A16.17,16.17,0,0,1,66.53,84.8c.71,3.29-1.08,5.78-3.61,7.7-.71.54-1.07,1-.78,1.91a102.56,102.56,0,0,0,13.61,28.28,86.55,86.55,0,0,0,13.18,15.18c-1.44-3.06-3.13-6-4.41-9.12a70.24,70.24,0,0,1-5.11-19.42c-.17-1.65-.5-2.64-2.58-3-5.1-.82-9.06-5-6.33-11.87a17.48,17.48,0,0,1,4.74-7.28c1.11-.93,2.22-1.23,3.34-.32,3.3,2.69,6.39,5.56,8.09,9.62,1.89,4.52.22,8.26-4.52,9.57-1.38.38-1.84.79-1.63,2.34a82.48,82.48,0,0,0,9.87,28.71.94.94,0,0,0,.94.63c.16-1.14.36-2.33.47-3.52A539.23,539.23,0,0,0,94,71.84c0-1.63.45-3.64-.33-4.77s-2.86-1.24-4.31-1.94A16.92,16.92,0,0,1,79.81,49c.28-5.6,2.74-10.25,6.07-14.53,3.06-3.94,6.93-7,10.72-10.23.6-.5,1.11-1.27,2.07-.21,4.87,5.36,9.91,10.57,12.62,17.49,2.44,6.24,3,12.39-.66,18.41-2.94,4.82-7.4,7-12.88,7.25-1.25.06-1.67.28-1.58,1.62.66,9.78.34,19.56,0,29.35-.34,10.76-.87,21.52-1.75,32.26,0,.31,0,.62,0,1.08,3.46-3.66,5.49-8,7.58-12.31a59.72,59.72,0,0,0,3.72-9.63c.36-1.26.56-2.17-1.21-2.56a9,9,0,0,1-3.45-1.74c-3.5-2.68-4-5.08-1.87-9a20.82,20.82,0,0,1,7.73-8.1c2.27-1.32,3.46-1,4.6,1.27a27.06,27.06,0,0,1,3.07,10.85c.22,4.34-1.86,6.85-6.15,7.3-1.41.15-1.31,1-1.5,1.83a75.93,75.93,0,0,1-8.52,21.11c-.64,1.12-1.51,2.1-2.2,3.22a65.33,65.33,0,0,0,11.1-9.63c7.39-7.59,13-16.44,17.74-25.86.7-1.39,1.31-2.84,2-4.22.39-.75.57-1.12-.47-1.58a30.68,30.68,0,0,1-4.57-2.65c-3.64-2.45-4.89-7.81-3.15-12.53s5.26-7.54,9.44-9.71c2.48-1.28,5.15-2.2,7.73-3.29,1.18-.5,1.91-.12,2.55,1a42.87,42.87,0,0,1,5.76,20.52c.1,4.68-2.12,7.14-6.81,7.63-2.13.23-4.27.7-6.42.16-.91-.23-1.27.37-1.66,1-1.76,2.91-3,6.09-4.45,9.13a81.8,81.8,0,0,1-8.32,13.23A89.5,89.5,0,0,1,101.16,133q-3.06,2.44-6.26,4.7a2.83,2.83,0,0,0-1.29,2.21c-2.3,18-3.06,36-3.33,54.12a3.75,3.75,0,0,0,.13.73,2.21,2.21,0,0,0,1.31-1c5.56-8.51,10.23-17.42,12.57-27.41.28-1.19.18-1.69-1.09-2.28-6.57-3-5.89-7.86-2.06-12.7a34.3,34.3,0,0,1,5.82-5.2,3.14,3.14,0,0,1,4.36-.06c3,2.21,5.73,9.3,4.75,12.87-.9,3.28-4.48,5.85-8.59,5.9-1.28,0-1.65.41-1.89,1.56a74.2,74.2,0,0,1-11.36,26.21c-.5.74-1.1,1.43-1.57,2.25a43.41,43.41,0,0,0,6.65-5.35A101.36,101.36,0,0,0,119.4,164c1.89-3.4,3.38-7,5.08-10.54.34-.7,0-1.05-.49-1.46a16.54,16.54,0,0,1-2.62-2.31c-2-2.42-1.92-5.6.29-8.69a20.06,20.06,0,0,1,9.78-7.47c1.65-.58,2.84-.4,3.81,1.18,2.16,3.53,3.72,7.23,3.31,11.45-.49,5.08-3.53,7.64-8.62,7.59-1.24,0-2.67-1.09-3.69,0a11,11,0,0,0-1.61,3.31,74,74,0,0,1-6.17,11.55,99.11,99.11,0,0,1-26.79,28.11,2.8,2.8,0,0,0-1.44,2.67c.17,6.32.23,12.65.33,19,0,.32,0,.65,0,1,0,1.14-.9,1.2-1.63,1.28-1,.12-.64-.76-.66-1.24-.3-7.24-.45-14.48-.27-21.73a5.1,5.1,0,0,0-1.88-4.4,93,93,0,0,1-21.84-27.83c-3-5.69-4.94-11.77-7.12-17.77-.43-1.18-1-1.33-2.11-1.39a20.75,20.75,0,0,1-8.71-1.9,5.71,5.71,0,0,1-3.25-5.79c.5-7.9,3.53-14.91,8-21.34a1.66,1.66,0,0,1,2.18-.81c5.07,2.44,10.05,5,13.62,9.59,3.33,4.3,3.89,10.32,1.16,14.48a11.36,11.36,0,0,1-6.77,4.69c-1.67.45-2.12,1.11-1.53,2.84A108.42,108.42,0,0,0,73.66,176a86.59,86.59,0,0,0,11.92,13.7c.4-.69-.16-1-.37-1.42-3.7-6.73-5.65-14-7-21.51-.18-1-.32-2.06-.45-3.09a1,1,0,0,0-.78-1c-5.86-2.27-7.7-6.27-5.78-12.33a23.58,23.58,0,0,1,3.63-6.46c1.32-1.85,2.88-1.78,4.7-.32a27.5,27.5,0,0,1,6.37,6.81c3.52,5.64,1.91,10-4.44,11.83-2.75.8-2.77.8-2.2,3.57a77.26,77.26,0,0,0,8.15,21.52C87.52,187.45,87.71,187.53,88,187.8Z" transform="translate(-43.11 -23.46)"/></svg>