<svg id="Layer_1" data-name="Layer 1" xmlns="http://www.w3.org/2000/svg" viewBox="0 0 109.57 130.44"><defs><style>.cls-1{fill:#d2c2a2;}.cls-2{fill:#352b2c;}</style></defs><title>walnut</title><path class="cls-1" d="M143.88,87.68c.3,28-16.66,55.47-37,59.95-5.81,1-15.27-3.91-17.74-8.64-5.87,8.9-13.63,8.9-18.87,8.18-6.88.34-38.09-23-35.86-59.49,3.49-28.1,16-52.29,38.18-60.41,5.22-1.92,16.55-9.94,16.55-9.94s10.9,7.82,15,9.27C127,34.73,143.57,58.61,143.88,87.68Z" transform="translate(-34.31 -17.33)"/><path class="cls-2" d="M135.86,86.93c.25,23.91-14.22,47.35-31.58,51.17-5,.87-13-3.34-15.14-7.38-5,7.6-11.63,7.6-16.1,7-5.88.29-32.51-19.63-30.61-50.78,3-24,13.69-44.64,32.58-51.57,4.46-1.63,14.13-8.48,14.13-8.48s9.3,6.67,12.78,7.91C121.41,41.73,135.59,62.11,135.86,86.93Z" transform="translate(-34.31 -17.33)"/><path class="cls-1" d="M84.94,67V53h0v-.12h0A6.21,6.21,0,0,0,72.51,53a6.14,6.14,0,0,0,.87,3.12,10.9,10.9,0,0,0-9.73,14.11A17.17,17.17,0,0,0,63,103.41a10.74,10.74,0,0,0-.2,2.06,11,11,0,0,0,10.35,11,6.18,6.18,0,0,0-.86,3.16,6.31,6.31,0,1,0,12.61,0c0-.11,0-.21,0-.32h0V105.47h0V86.91h0V67Z" transform="translate(-34.31 -17.33)"/><path class="cls-1" d="M92.67,105.77h0v14h0v.12h0a6.21,6.21,0,0,0,12.42-.13,6.11,6.11,0,0,0-.87-3.11,10.89,10.89,0,0,0,10.22-10.86,10.64,10.64,0,0,0-.5-3.26,17.16,17.16,0,0,0,.62-33.17,10.84,10.84,0,0,0,.2-2.07,11.05,11.05,0,0,0-10.35-11,6.31,6.31,0,1,0-11.76-3.16c0,.11,0,.21,0,.32h0V67.26h0V85.85h0v19.91Z" transform="translate(-34.31 -17.33)"/><path class="cls-2" d="M64.65,105.69a15.37,15.37,0,0,1-2-.11l.27-2.12c.1,0,10.09,1.16,14-6l1.87,1C75.3,104.85,68.15,105.69,64.65,105.69Z" transform="translate(-34.31 -17.33)"/><path class="cls-2" d="M100.93,75.31l-1.87-1c4.64-8.44,15.69-7.15,16.17-7.09L115,69.31C114.86,69.3,104.87,68.15,100.93,75.31Z" transform="translate(-34.31 -17.33)"/></svg>