<svg id="Layer_1" data-name="Layer 1" xmlns="http://www.w3.org/2000/svg" viewBox="0 0 124.4 214.33"><defs><style>.cls-1{fill:#e01e3b;}</style></defs><title>amar1</title><path class="cls-1" d="M60.89,228.55l0,0c-6.73-9.39-6-23.39,1.58-32.08,3.07-3.5,7-6.14,10.53-9.12a31.6,31.6,0,0,0,7.72-9.66c4.7-8.19,10.09-16.26,17.76-22,8.68-6.45,19.76-9.47,27.52-17,9.77-9.51,12.22-24.13,13.38-37.72.17-2.06-.35-4.91-2.41-4.91-1.63,0-2.46,1.9-3,3.45a71.16,71.16,0,0,1-14.71,25.84c-7,7.92-16.08,13.09-24.23,19.71-10.24,8.32-19.11,18.69-24,30.94-2.63,6.55-4.38,14-9.84,18.43,1-10.29,3.78-21.21,9.58-29.88C79,152.5,91,144,99.12,132c7.87-11.66,13-25.35,13.48-39.48.66-18.61-7.25-37.79-22.16-48.93a3.38,3.38,0,0,0-2-.86c-2.31,0-2.08,3.61-1,5.63C91.69,55.85,97,62.91,99.29,71.17c3.57,12.58-.22,26.26-6.78,37.57-4.88,8.4-11.2,15.82-17.48,23.18-5.61,6.57-12.28,12.56-10.38,22.13.6,3,2,5.87,2.6,8.91s.21,6.58-2.15,8.59c1.1-10.17-7.91-19.51-6.5-29.64,1.32-9.44,10.78-15.11,17-22.34A36.71,36.71,0,0,0,66.8,64.3c-7-4.25-15.22-6.06-22.43-9.94s-13.77-11-12.95-19.18C32.06,28.81,37.08,23.34,37,17a3.11,3.11,0,0,0-.63-2.11c-1.08-1.16-3-.42-4.35.45A38.77,38.77,0,0,0,17.81,30.81c-3,6.42-3.75,14.08-1.16,20.69,4.09,10.39,15,16.11,24.68,21.57S61.42,86,62.9,97.05c1.17,8.77-3.65,17.06-7.55,25s-7,17.64-2.58,25.33c1.59,2.78,4,5,5.9,7.58,4.11,5.69,5.37,13,4.85,20s-2.67,13.77-4.81,20.45c-.1-11.93,4-24.9-2-35.17-3.37-5.72-9.32-9.35-13.84-14.2-7.24-7.76-10.65-18.56-10.93-29.17s2.34-21.1,5.89-31.1c-2.14-1.56-5.3-.9-7.32.81s-3.17,4.22-4.18,6.66c-4.45,10.69-7.79,22-8,33.57s2.91,23.47,10.24,32.42c5.09,6.21,11.91,10.72,17.8,16.17S57.44,187.94,57.67,196c.18,5.93-2.4,11.59-3.23,17.47S55.36,226.46,60.89,228.55ZM134,103.68a1.88,1.88,0,0,1,3.76,0A1.88,1.88,0,0,1,134,103.68Zm-4.5,9.56a1.88,1.88,0,0,1,3.76,0A1.88,1.88,0,0,1,129.49,113.24Zm-1.68,9.68a1.88,1.88,0,0,1,3.76,0A1.88,1.88,0,0,1,127.81,122.92Zm-5.19,8.85a1.89,1.89,0,0,1,3.77,0A1.89,1.89,0,0,1,122.62,131.77Zm-3.87,6.34a1.88,1.88,0,0,1,3.76,0A1.88,1.88,0,0,1,118.75,138.11Zm-15.81,7a2,2,0,0,1,.42-1.08,1.89,1.89,0,0,1,3.41,1.08C106.77,147.88,102.85,147.1,102.94,145.14ZM94.83,153a1.49,1.49,0,0,1,.06-.4c.51-2,3.72-1.78,3.72.4C98.61,155.49,94.75,155.1,94.83,153Zm-12.07,8.15a1.88,1.88,0,0,1,3.76,0A1.88,1.88,0,0,1,82.76,161.16Zm-4.5,7.32a1.88,1.88,0,0,1,3.76,0A1.88,1.88,0,0,1,78.26,168.48ZM71,179.72a1.88,1.88,0,0,1,3.76,0A1.88,1.88,0,0,1,71,179.72ZM93.32,54.15a1.88,1.88,0,0,1,3.76,0A1.88,1.88,0,0,1,93.32,54.15Zm6.77,10.39a1.88,1.88,0,0,1,3.76,0A1.88,1.88,0,0,1,100.09,64.54Zm3.16,8.35a1.89,1.89,0,0,1,3.77,0A1.89,1.89,0,0,1,103.25,72.89Zm4.07,9.71a1.88,1.88,0,0,1,3.76,0A1.88,1.88,0,0,1,107.32,82.6Zm-4.07,4.29a1.89,1.89,0,0,1,3.77,0A1.89,1.89,0,0,1,103.25,86.89Zm4.67,11.29a1.88,1.88,0,0,1-3.76,0A1.88,1.88,0,0,1,107.92,98.18ZM96.71,99.76a1.88,1.88,0,0,1,3.76,0A1.88,1.88,0,0,1,96.71,99.76Zm-5,14a1.88,1.88,0,0,1,3.76,0A1.88,1.88,0,0,1,91.74,113.75Zm9.26,0a1.88,1.88,0,0,1,3.76,0A1.88,1.88,0,0,1,101,113.75Zm-5.72,10.62a1.89,1.89,0,0,1-3.77,0A1.89,1.89,0,0,1,95.28,124.37ZM82,126a1.88,1.88,0,0,1,3.76,0A1.88,1.88,0,0,1,82,126Zm5.87,6.54a1.88,1.88,0,0,1,3.76,0A1.88,1.88,0,0,1,87.9,132.49Zm-9,2a1.88,1.88,0,0,1,3.76,0A1.88,1.88,0,0,1,78.87,134.53Zm12.42,1.8a1.88,1.88,0,0,1,3.76,0A1.88,1.88,0,0,1,91.29,136.33Zm-9.71,4.07a1.88,1.88,0,0,1,3.76,0A1.88,1.88,0,0,1,81.58,140.4Zm-7.9,4.06a1.88,1.88,0,0,1,3.76,0A1.88,1.88,0,0,1,73.68,144.46Zm-5.87,9.26a1.88,1.88,0,0,1,3.76,0A1.88,1.88,0,0,1,67.81,153.72Zm-43.93-122a1.89,1.89,0,0,1,3.77,0A1.89,1.89,0,0,1,23.88,31.72Zm-4.4,6.6a1.89,1.89,0,0,1,3.77,0A1.89,1.89,0,0,1,19.48,38.32Zm6.6,9.43a1.89,1.89,0,0,1,3.77,0A1.89,1.89,0,0,1,26.08,47.75Zm2.2,9.11a1.89,1.89,0,0,1,3.77,0A1.89,1.89,0,0,1,28.28,56.86Zm9.43,5.35a1.88,1.88,0,0,1,3.76,0A1.88,1.88,0,0,1,37.71,62.21ZM47.14,65a1.88,1.88,0,0,1,3.76,0A1.88,1.88,0,0,1,47.14,65Zm13.52,2.52a1.88,1.88,0,0,1,3.76,0A1.88,1.88,0,0,1,60.66,67.55ZM58.45,72a1.89,1.89,0,0,1-3.77,0A1.89,1.89,0,0,1,58.45,72Zm-10.68.31a1.88,1.88,0,0,1,3.76,0A1.88,1.88,0,0,1,47.77,72.26Zm28,7.86a1.88,1.88,0,0,1-3.76,0A1.88,1.88,0,0,1,75.73,80.12ZM61.6,82.63a1.88,1.88,0,0,1,3.76,0A1.88,1.88,0,0,1,61.6,82.63Zm7.56,4.93a1.88,1.88,0,0,1,3.76,0A1.88,1.88,0,0,1,69.16,87.56ZM78,95.24a1.88,1.88,0,0,1,3.76,0A1.88,1.88,0,0,1,78,95.24ZM66,100a1.88,1.88,0,0,1,3.76,0A1.88,1.88,0,0,1,66,100Zm4.74,7.23a1.88,1.88,0,0,1,3.76,0A1.88,1.88,0,0,1,70.74,107.21ZM61,111.72a1.89,1.89,0,0,1,3.77,0A1.89,1.89,0,0,1,61,111.72Zm11,6.78a1.88,1.88,0,0,1-3.76,0A1.88,1.88,0,0,1,72,118.5Zm-9.86.9a1.88,1.88,0,0,1,3.76,0A1.88,1.88,0,0,1,62.16,119.4Zm-6.32,9.71a1.88,1.88,0,0,1,3.76,0A1.88,1.88,0,0,1,55.84,129.11Zm-3.39,10.16a1.89,1.89,0,0,1,3.77,0A1.89,1.89,0,0,1,52.45,139.27ZM27.37,98.74a1.88,1.88,0,0,1,3.76,0A1.88,1.88,0,0,1,27.37,98.74Zm-4.5,10.69a1.88,1.88,0,0,1,3.76,0A1.88,1.88,0,0,1,22.87,109.43Zm1.68,11.24a1.89,1.89,0,0,1,3.77,0A1.89,1.89,0,0,1,24.55,120.67Zm-2.81,5.63a1.88,1.88,0,0,1,3.76,0A1.88,1.88,0,0,1,21.74,126.3Zm5.91,9.84a1.88,1.88,0,0,1,3.76,0A1.88,1.88,0,0,1,27.65,136.14Zm-7.6,4.22a1.89,1.89,0,0,1,3.77,0A1.89,1.89,0,0,1,20.05,140.36Zm13.5,5.9a1.88,1.88,0,0,1,3.76,0A1.88,1.88,0,0,1,33.55,146.26ZM29.05,153a1.88,1.88,0,0,1,3.76,0A1.88,1.88,0,0,1,29.05,153Zm9.84,1.69a1.89,1.89,0,0,1,3.77,0A1.89,1.89,0,0,1,38.89,154.7ZM40,160.88a1.88,1.88,0,0,1,3.76,0A1.88,1.88,0,0,1,40,160.88Zm7.87,4.78a1.88,1.88,0,0,1,3.76,0A1.88,1.88,0,0,1,47.89,165.66Zm6.75,10.13a1.88,1.88,0,0,1,3.76,0A1.88,1.88,0,0,1,54.64,175.79Z" transform="translate(-15.06 -14.25)"/></svg>