<svg id="Layer_1" data-name="Layer 1" xmlns="http://www.w3.org/2000/svg" viewBox="0 0 141.02 118.02"><defs><style>.cls-1{fill:#583615;}.cls-2{fill:#f8f5ea;stroke:#663614;stroke-miterlimit:10;}.cls-3{fill:#8e6a29;}</style></defs><title>kunj</title><path class="cls-1" d="M68.92,150.71c-6.52,2-32.05,5.39-44.19-34.2-7.75-25.26,5.55-59.64,10-69.93A3,3,0,0,1,39,45.15c9.65,5.51,40.46,24.89,48.78,52C97.21,128,86.16,145.43,68.92,150.71Z" transform="translate(-22.35 -33.76)"/><path class="cls-1" d="M116.81,150.71c6.52,2,32.05,5.39,44.19-34.2,7.75-25.26-5.55-59.64-10-69.93a3,3,0,0,0-4.27-1.43C137.1,50.66,106.29,70,98,97.18,88.52,128,99.57,145.43,116.81,150.71Z" transform="translate(-22.35 -33.76)"/><path class="cls-2" d="M109.3,78c.82,21.09-6.43,38.5-16.21,38.88S74.73,100.5,73.91,79.41s11.42-45,15.73-45.15C94.94,34.05,108.48,56.94,109.3,78Z" transform="translate(-22.35 -33.76)"/><path class="cls-3" d="M101.43,149.26l-14.1.54c-18.6.73-34.54-20.83-35.29-40C51,83,66.36,49.4,74.81,40.27l17.5,38.34L106.3,39c8.67,8,26.22,42.17,27.21,67.63C134.09,121.64,120,148.53,101.43,149.26Z" transform="translate(-22.35 -33.76)"/></svg>