<svg id="Layer_1" data-name="Layer 1" xmlns="http://www.w3.org/2000/svg" viewBox="0 0 124.64 124.64"><defs><style>.cls-1{fill:#542358;}.cls-2{fill:#6d2870;}.cls-3{fill:#e41c66;}.cls-4{fill:#562158;}</style></defs><title>rast1</title><path class="cls-1" d="M14.1,13.84S24.7,38.63,53.17,42.89a2,2,0,0,0,1.73-.53A1.52,1.52,0,0,0,55.31,41a1.79,1.79,0,0,0-1.6-1.42C49.37,39.13,29.79,35.89,14.1,13.84Z" transform="translate(-14.1 -6.26)"/><path class="cls-1" d="M40,6.26S43.18,33,69.32,45.07a2,2,0,0,0,1.81,0,1.47,1.47,0,0,0,.78-1.17,1.78,1.78,0,0,0-1.14-1.81C66.73,40.4,48.84,31.81,40,6.26Z" transform="translate(-14.1 -6.26)"/><path class="cls-1" d="M65.78,11S59.71,25.7,69.71,39.46a1.17,1.17,0,0,0,.94.51.88.88,0,0,0,.74-.38,1.05,1.05,0,0,0-.06-1.26C69.72,36.31,63,26.71,65.78,11Z" transform="translate(-14.1 -6.26)"/><path class="cls-1" d="M138.75,13.84s-10.6,24.79-39.06,29.05A2,2,0,0,1,98,42.36,1.52,1.52,0,0,1,97.54,41a1.79,1.79,0,0,1,1.6-1.42C103.48,39.13,123.06,35.89,138.75,13.84Z" transform="translate(-14.1 -6.26)"/><path class="cls-1" d="M112.9,6.26S109.67,33,83.53,45.07a2,2,0,0,1-1.81,0,1.47,1.47,0,0,1-.78-1.17,1.78,1.78,0,0,1,1.14-1.81C86.12,40.4,104,31.81,112.9,6.26Z" transform="translate(-14.1 -6.26)"/><path class="cls-1" d="M87.07,11s6.07,14.73-3.93,28.49a1.17,1.17,0,0,1-.94.51.88.88,0,0,1-.74-.38,1.05,1.05,0,0,1,.06-1.26C83.13,36.31,89.87,26.71,87.07,11Z" transform="translate(-14.1 -6.26)"/><polygon class="cls-1" points="62.93 0.04 62.08 30.77 64.11 30.77 62.93 0.04"/><rect class="cls-2" x="7.36" y="30.63" width="110.13" height="94.01" rx="43.56" ry="43.56"/><path class="cls-3" d="M34.44,14s5,21.3,27.17,28.68a1.61,1.61,0,0,0,1.46-.19,1.19,1.19,0,0,0,.52-1,1.44,1.44,0,0,0-1.08-1.35C59.1,39.18,43.9,33.86,34.44,14Z" transform="translate(-14.1 -6.26)"/><path class="cls-3" d="M51.73,17.2s.8,14,15.27,22.53a1.21,1.21,0,0,0,1,.11.86.86,0,0,0,.52-.54,1,1,0,0,0-.61-1.2C65.47,37.15,55.37,32.4,51.73,17.2Z" transform="translate(-14.1 -6.26)"/><path class="cls-3" d="M73.25,18.26s-5.64,7,.57,20.88a1.13,1.13,0,0,0,1.18.44.93.93,0,0,0,.45-1.34C74.14,36,69.43,26.75,73.25,18.26Z" transform="translate(-14.1 -6.26)"/><path class="cls-3" d="M80.8,18.26s5.65,7-.56,20.88a1.13,1.13,0,0,1-1.18.44.93.93,0,0,1-.46-1.34C79.92,36,84.62,26.75,80.8,18.26Z" transform="translate(-14.1 -6.26)"/><path class="cls-3" d="M97.46,17.42A26.32,26.32,0,0,1,85.67,39.69a1.1,1.1,0,0,1-1,.15.84.84,0,0,1-.52-.54,1,1,0,0,1,.55-1.22C86.75,37.11,94.7,32.46,97.46,17.42Z" transform="translate(-14.1 -6.26)"/><path class="cls-3" d="M117.58,14s-5,21.3-27.18,28.68a1.61,1.61,0,0,1-1.46-.19,1.19,1.19,0,0,1-.52-1,1.45,1.45,0,0,1,1.08-1.35C92.91,39.18,108.11,33.86,117.58,14Z" transform="translate(-14.1 -6.26)"/><polygon class="cls-4" points="78.94 86.56 69.21 77.12 78.94 60.01 88.68 77.12 78.94 86.56"/><polygon class="cls-3" points="70.25 75.33 78.93 60.01 87.64 75.33 70.25 75.33"/><polygon class="cls-4" points="101.27 75.66 91.53 66.21 101.27 49.11 111 66.21 101.27 75.66"/><polygon class="cls-3" points="92.57 64.42 101.25 49.11 109.96 64.42 92.57 64.42"/><polygon class="cls-4" points="62.55 66.96 52.81 57.51 62.55 40.41 72.28 57.51 62.55 66.96"/><polygon class="cls-3" points="53.85 55.72 62.53 40.41 71.24 55.72 53.85 55.72"/><polygon class="cls-4" points="45.39 86.84 35.66 77.4 45.39 60.3 55.13 77.4 45.39 86.84"/><polygon class="cls-3" points="36.69 75.61 45.38 60.3 54.09 75.61 36.69 75.61"/><polygon class="cls-4" points="25.7 75.09 15.96 65.65 25.7 48.55 35.43 65.65 25.7 75.09"/><polygon class="cls-3" points="17 63.86 25.68 48.55 34.4 63.86 17 63.86"/><polygon class="cls-4" points="30.46 103.85 22.88 96.5 30.46 83.18 38.04 96.5 30.46 103.85"/><polygon class="cls-3" points="23.68 95.11 30.45 83.18 37.23 95.11 23.68 95.11"/><polygon class="cls-4" points="96.38 103.39 88.81 96.03 96.38 82.72 103.96 96.03 96.38 103.39"/><polygon class="cls-3" points="89.61 94.64 96.37 82.72 103.16 94.64 89.61 94.64"/><polygon class="cls-4" points="63.07 102.33 55.37 94.86 63.07 81.32 70.78 94.86 63.07 102.33"/><polygon class="cls-3" points="56.19 93.44 63.06 81.32 69.96 93.44 56.19 93.44"/><polygon class="cls-4" points="48.16 118.08 40.46 110.61 48.16 97.07 55.87 110.61 48.16 118.08"/><polygon class="cls-3" points="41.28 109.19 48.15 97.07 55.05 109.19 41.28 109.19"/><polygon class="cls-4" points="78.66 118.08 70.96 110.61 78.66 97.07 86.37 110.61 78.66 118.08"/><polygon class="cls-3" points="71.78 109.19 78.65 97.07 85.55 109.19 71.78 109.19"/></svg>