<svg id="Layer_1" data-name="Layer 1" xmlns="http://www.w3.org/2000/svg" viewBox="0 0 149.89 134.51"><defs><style>.cls-1{fill:#cf6228;}.cls-2{fill:#f29725;}.cls-3{fill:#f5a620;}</style></defs><title>pump</title><ellipse class="cls-1" cx="109.06" cy="78.64" rx="40.83" ry="51.4"/><ellipse class="cls-1" cx="39.08" cy="78.64" rx="39.08" ry="51.4"/><ellipse class="cls-2" cx="95.76" cy="78.64" rx="32.43" ry="51.4"/><ellipse class="cls-2" cx="53.55" cy="78.64" rx="32.7" ry="51.4"/><path class="cls-1" d="M102.16,38.88c-4.29-2.75-13.91-2.57-18.3.15A1.08,1.08,0,0,1,82.27,38V19.78a6.07,6.07,0,0,1,2.91-5.37c4.54-2.48,11.13-2.62,15.49-.33a6.15,6.15,0,0,1,3.11,5.48V37.83A1.09,1.09,0,0,1,102.16,38.88Z" transform="translate(-17.92 -12.45)"/><ellipse class="cls-3" cx="74.51" cy="78.64" rx="30.64" ry="55.88"/></svg>