<svg id="Layer_1" data-name="Layer 1" xmlns="http://www.w3.org/2000/svg" viewBox="0 0 135.96 163.8"><defs><style>.cls-1{fill:#046937;}</style></defs><title>mj1</title><path class="cls-1" d="M104.61,64.57C104.61,93,99.39,116,93,116S81.3,93,81.3,64.57,93,13.14,93,13.14,104.61,36.17,104.61,64.57Z" transform="translate(-24.73 -13.14)"/><path class="cls-1" d="M63,121.08c15.73-6.48,29.68-8.85,31.15-5.28S84.06,127.51,68.33,134a75.74,75.74,0,0,1-31.15,5.28A75.61,75.61,0,0,1,63,121.08Z" transform="translate(-24.73 -13.14)"/><path class="cls-1" d="M123.56,121.08c-15.74-6.48-29.69-8.85-31.15-5.28S102.5,127.51,118.24,134a75.72,75.72,0,0,0,31.15,5.28A75.74,75.74,0,0,0,123.56,121.08Z" transform="translate(-24.73 -13.14)"/><path class="cls-1" d="M65.53,76.78c18.37,18.37,29.89,36.64,25.73,40.8s-22.43-7.36-40.8-25.73-25.73-40.8-25.73-40.8S47.16,58.41,65.53,76.78Z" transform="translate(-24.73 -13.14)"/><path class="cls-1" d="M119.89,76.78C101.52,95.15,90,113.42,94.17,117.58s22.42-7.36,40.79-25.73,25.73-40.8,25.73-40.8S138.26,58.41,119.89,76.78Z" transform="translate(-24.73 -13.14)"/><path class="cls-1" d="M87.66,141.34v0c0,4.27,5.56,35.59,5.56,35.59s5.6-31.76,5.6-35.7v0h0a5.59,5.59,0,1,0-11.17,0S87.66,141.29,87.66,141.34Z" transform="translate(-24.73 -13.14)"/></svg>