<?xml version="1.0" encoding="utf-8"?>
<!-- Generator: Adobe Illustrator 22.1.0, SVG Export Plug-In . SVG Version: 6.00 Build 0)  -->
<svg version="1.1" id="Layer_1" xmlns="http://www.w3.org/2000/svg" xmlns:xlink="http://www.w3.org/1999/xlink" x="0px" y="0px"
	 viewBox="0 0 432 4320" style="enable-background:new 0 0 432 4320;" xml:space="preserve">
<style type="text/css">
	.st0{fill:#22502B;}
	.st1{fill:#6E9B74;}
	.st2{fill:#F6E56F;}
	.st3{fill:#F7E600;}
	.st4{fill:#95CD8B;}
	.st5{fill:#8DC63F;}
	.st6{fill:#E3BC3D;}
	.st7{fill:#399F49;}
	.st8{fill:#FFF200;}
	.st9{fill:#009D4B;}
	.st10{fill:#FFDD00;}
	.st11{fill:#FBB040;}
	.st12{fill:#D5B115;}
	.st13{fill:#3A6531;}
	.st14{fill:#FFD105;}
	.st15{fill:#95CA57;}
</style>
<title>romb sunfl</title>
<polygon class="st0" points="108,83.9 0,263.9 108,443.9 216,263.9 "/>
<polygon class="st1" points="324,83.9 216,263.9 324,443.9 432,263.9 "/>
<polygon class="st2" points="108,443.9 0,623.9 108,803.9 216,623.9 "/>
<polygon class="st3" points="324,443.9 216,623.9 324,803.9 432,623.9 "/>
<polygon class="st4" points="108,803.9 0,983.9 108,1163.9 216,983.9 "/>
<polygon class="st5" points="324,803.9 216,983.9 324,1163.9 432,983.9 "/>
<polygon class="st6" points="216,263.9 108,443.9 216,623.9 324,443.9 "/>
<polygon class="st7" points="216,623.9 108,803.9 216,983.9 324,803.9 "/>
<polygon class="st8" points="216,983.9 108,1163.9 216,1343.9 324,1163.9 "/>
<polygon class="st9" points="0,263.9 0,623.9 108,443.9 "/>
<polygon class="st10" points="0,623.9 0,983.9 108,803.9 "/>
<polygon class="st11" points="0,983.9 0,1343.9 108,1163.9 "/>
<polygon class="st12" points="324,83.9 374.4,0 273.6,0 "/>
<polygon class="st13" points="158.4,0 108,83.9 57.6,0 "/>
<polygon class="st14" points="108,83.9 57.6,0 0,0 0,263.9 "/>
<polygon class="st15" points="158.4,0 108,83.9 216,263.9 324,83.9 273.6,0 "/>
<polygon class="st0" points="108,1523.9 0,1703.9 108,1883.9 216,1703.9 "/>
<polygon class="st1" points="324,1523.9 216,1703.9 324,1883.9 432,1703.9 "/>
<polygon class="st2" points="108,1883.9 0,2063.9 108,2243.9 216,2063.9 "/>
<polygon class="st3" points="324,1883.9 216,2063.9 324,2243.9 432,2063.9 "/>
<polygon class="st4" points="108,2243.9 0,2423.9 108,2603.9 216,2423.9 "/>
<polygon class="st5" points="324,2243.9 216,2423.9 324,2603.9 432,2423.9 "/>
<polygon class="st6" points="216,1703.9 108,1883.9 216,2063.9 324,1883.9 "/>
<polygon class="st7" points="216,2063.9 108,2243.9 216,2423.9 324,2243.9 "/>
<polygon class="st8" points="216,2423.9 108,2603.9 216,2783.9 324,2603.9 "/>
<polygon class="st9" points="0,1703.9 0,2063.9 108,1883.9 "/>
<polygon class="st10" points="0,2063.9 0,2423.9 108,2243.9 "/>
<polygon class="st11" points="0,2423.9 0,2783.9 108,2603.9 "/>
<polygon class="st12" points="324,1163.9 216,1343.9 273.6,1440 324,1523.9 374.4,1440 432,1343.9 "/>
<polygon class="st13" points="108,1163.9 0,1343.9 57.6,1440 108,1523.9 158.4,1440 216,1343.9 "/>
<polygon class="st14" points="57.6,1440 0,1343.9 0,1440 0,1703.9 108,1523.9 "/>
<polygon class="st15" points="273.6,1440 216,1343.9 158.4,1440 108,1523.9 216,1703.9 324,1523.9 "/>
<polygon class="st0" points="108,2963.9 0,3143.9 108,3323.9 216,3143.9 "/>
<polygon class="st1" points="324,2963.9 216,3143.9 324,3323.9 432,3143.9 "/>
<polygon class="st2" points="108,3323.9 0,3503.9 108,3683.9 216,3503.9 "/>
<polygon class="st3" points="324,3323.9 216,3503.9 324,3683.9 432,3503.9 "/>
<polygon class="st4" points="108,3683.9 0,3863.9 108,4043.9 216,3863.9 "/>
<polygon class="st5" points="324,3683.9 216,3863.9 324,4043.9 432,3863.9 "/>
<polygon class="st6" points="216,3143.9 108,3323.9 216,3503.9 324,3323.9 "/>
<polygon class="st7" points="216,3503.9 108,3683.9 216,3863.9 324,3683.9 "/>
<polygon class="st8" points="216,3863.9 108,4043.9 216,4223.9 324,4043.9 "/>
<polygon class="st9" points="0,3143.9 0,3503.9 108,3323.9 "/>
<polygon class="st10" points="0,3503.9 0,3863.9 108,3683.9 "/>
<polygon class="st11" points="0,3863.9 0,4223.9 108,4043.9 "/>
<polygon class="st12" points="324,2603.9 216,2783.9 273.6,2880 324,2963.9 374.4,2880 432,2783.9 "/>
<polygon class="st12" points="324,4043.9 216,4223.9 273.6,4320 374.4,4320 432,4223.9 "/>
<polygon class="st13" points="108,4043.9 0,4223.9 57.6,4320 158.4,4320 216,4223.9 "/>
<polygon class="st13" points="108,2603.9 0,2783.9 57.6,2880 108,2963.9 158.4,2880 216,2783.9 "/>
<polygon class="st14" points="57.6,2880 0,2783.9 0,2880 0,3143.9 108,2963.9 "/>
<polygon class="st14" points="0,4223.9 0,4320 57.6,4320 "/>
<polygon class="st15" points="273.6,2880 216,2783.9 158.4,2880 108,2963.9 216,3143.9 324,2963.9 "/>
<polygon class="st15" points="273.6,4320 216,4223.9 158.4,4320 "/>
</svg>
