<svg id="Layer_1" data-name="Layer 1" xmlns="http://www.w3.org/2000/svg" viewBox="0 0 432 4320"><defs><style>.cls-1{fill:#f7941d;}.cls-2{fill:#ffcd31;}.cls-3{fill:#ef8031;}.cls-4{fill:#f2c50f;}.cls-5{fill:#d17412;}.cls-6{fill:#eb8f4d;}.cls-7{fill:#ffec5f;}.cls-8{fill:#fde92b;}.cls-9{fill:#ffc40c;}.cls-10{fill:#efae0f;}.cls-11{fill:#fff37a;}.cls-12{fill:#f9d467;}.cls-13{fill:#f4783b;}.cls-14{fill:#f9a67d;}.cls-15{fill:#ffe500;}.cls-16{fill:#f15a22;}</style></defs><title>romb ryzhei</title><polygon class="cls-1" points="108 83.93 0 263.93 108 443.93 216 263.93 108 83.93"/><polygon class="cls-2" points="324 83.93 216 263.93 324 443.93 432 263.93 324 83.93"/><polygon class="cls-3" points="108 443.93 0 623.93 108 803.93 216 623.93 108 443.93"/><polygon class="cls-4" points="324 443.93 216 623.93 324 803.93 432 623.93 324 443.93"/><polygon class="cls-5" points="108 803.93 0 983.93 108 1163.93 216 983.93 108 803.93"/><polygon class="cls-6" points="324 803.93 216 983.93 324 1163.93 432 983.93 324 803.93"/><polygon class="cls-7" points="216 263.93 108 443.93 216 623.93 324 443.93 216 263.93"/><polygon class="cls-8" points="216 623.93 108 803.93 216 983.93 324 803.93 216 623.93"/><polygon class="cls-9" points="216 983.93 108 1163.93 216 1343.93 324 1163.93 216 983.93"/><polygon class="cls-10" points="0 263.93 0 623.93 108 443.93 0 263.93"/><polygon class="cls-11" points="0 623.93 0 983.93 108 803.93 0 623.93"/><polygon class="cls-12" points="0 983.93 0 1343.93 108 1163.93 0 983.93"/><polygon class="cls-13" points="324 83.93 374.36 0 273.64 0 324 83.93"/><polygon class="cls-14" points="158.36 0 108 83.93 57.64 0 158.36 0"/><polygon class="cls-15" points="108 83.93 57.64 0 0 0 0 263.93 108 83.93"/><polygon class="cls-16" points="158.36 0 108 83.93 216 263.93 324 83.93 273.64 0 158.36 0"/><polygon class="cls-1" points="108 1523.93 0 1703.93 108 1883.93 216 1703.93 108 1523.93"/><polygon class="cls-2" points="324 1523.93 216 1703.93 324 1883.93 432 1703.93 324 1523.93"/><polygon class="cls-3" points="108 1883.93 0 2063.93 108 2243.93 216 2063.93 108 1883.93"/><polygon class="cls-4" points="324 1883.93 216 2063.93 324 2243.93 432 2063.93 324 1883.93"/><polygon class="cls-5" points="108 2243.93 0 2423.93 108 2603.93 216 2423.93 108 2243.93"/><polygon class="cls-6" points="324 2243.93 216 2423.93 324 2603.93 432 2423.93 324 2243.93"/><polygon class="cls-7" points="216 1703.93 108 1883.93 216 2063.93 324 1883.93 216 1703.93"/><polygon class="cls-8" points="216 2063.93 108 2243.93 216 2423.93 324 2243.93 216 2063.93"/><polygon class="cls-9" points="216 2423.93 108 2603.93 216 2783.93 324 2603.93 216 2423.93"/><polygon class="cls-10" points="0 1703.93 0 2063.93 108 1883.93 0 1703.93"/><polygon class="cls-11" points="0 2063.93 0 2423.93 108 2243.93 0 2063.93"/><polygon class="cls-12" points="0 2423.93 0 2783.93 108 2603.93 0 2423.93"/><polygon class="cls-13" points="324 1163.93 216 1343.93 273.64 1440 324 1523.93 374.36 1440 432 1343.93 324 1163.93"/><polygon class="cls-14" points="108 1163.93 0 1343.93 57.64 1440 108 1523.93 158.36 1440 216 1343.93 108 1163.93"/><polygon class="cls-15" points="57.64 1440 0 1343.93 0 1440 0 1703.93 108 1523.93 57.64 1440"/><polygon class="cls-16" points="273.64 1440 273.64 1440 216 1343.93 158.36 1440 158.36 1440 108 1523.93 216 1703.93 324 1523.93 273.64 1440"/><polygon class="cls-1" points="108 2963.93 0 3143.93 108 3323.93 216 3143.93 108 2963.93"/><polygon class="cls-2" points="324 2963.93 216 3143.93 324 3323.93 432 3143.93 324 2963.93"/><polygon class="cls-3" points="108 3323.93 0 3503.93 108 3683.93 216 3503.93 108 3323.93"/><polygon class="cls-4" points="324 3323.93 216 3503.93 324 3683.93 432 3503.93 324 3323.93"/><polygon class="cls-5" points="108 3683.93 0 3863.93 108 4043.93 216 3863.93 108 3683.93"/><polygon class="cls-6" points="324 3683.93 216 3863.93 324 4043.93 432 3863.93 324 3683.93"/><polygon class="cls-7" points="216 3143.93 108 3323.93 216 3503.93 324 3323.93 216 3143.93"/><polygon class="cls-8" points="216 3503.93 108 3683.93 216 3863.93 324 3683.93 216 3503.93"/><polygon class="cls-9" points="216 3863.93 108 4043.93 216 4223.93 324 4043.93 216 3863.93"/><polygon class="cls-10" points="0 3143.93 0 3503.93 108 3323.93 0 3143.93"/><polygon class="cls-11" points="0 3503.93 0 3863.93 108 3683.93 0 3503.93"/><polygon class="cls-12" points="0 3863.93 0 4223.93 108 4043.93 0 3863.93"/><polygon class="cls-13" points="324 2603.93 216 2783.93 273.64 2880 324 2963.93 374.36 2880 432 2783.93 324 2603.93"/><polygon class="cls-13" points="324 4043.93 216 4223.93 273.64 4320 374.36 4320 432 4223.93 324 4043.93"/><polygon class="cls-14" points="108 4043.93 0 4223.93 57.64 4320 158.36 4320 216 4223.93 108 4043.93"/><polygon class="cls-14" points="108 2603.93 0 2783.93 57.64 2880 108 2963.93 158.36 2880 216 2783.93 108 2603.93"/><polygon class="cls-15" points="57.64 2880 0 2783.93 0 2880 0 3143.93 108 2963.93 57.64 2880"/><polygon class="cls-15" points="0 4223.93 0 4320 57.64 4320 0 4223.93"/><polygon class="cls-16" points="273.64 2880 216 2783.93 158.36 2880 108 2963.93 216 3143.93 324 2963.93 273.64 2880"/><polygon class="cls-16" points="273.64 4320 216 4223.93 158.36 4320 273.64 4320"/></svg>